<svg width="17" height="17" viewBox="0 0 17 17" fill="none" xmlns="http://www.w3.org/2000/svg">
<g clip-path="url(#clip0_9606_489)">
<g clip-path="url(#clip1_9606_489)">
<path d="M13.3827 15.8839C12.6253 15.8586 11.8785 15.699 11.177 15.4126C9.35837 14.7288 7.39426 13.3757 5.60765 11.6007C3.82103 9.82577 2.49126 7.85002 1.79581 6.03431C1.17311 4.37573 1.1702 3.02558 1.7929 2.40579L2.06643 2.11481C2.63384 1.52413 3.27399 0.854875 4.12074 0.883973C4.7027 0.910161 5.28466 1.27389 5.86662 1.99551C7.58049 4.12548 6.80939 4.88494 5.91318 5.77825L5.75605 5.93538C5.61056 6.08087 5.33413 6.75885 7.90639 9.33111C8.55367 10.0077 9.26615 10.6188 10.0334 11.1555C10.3943 11.3912 11.0374 11.7375 11.3021 11.4814L11.4593 11.3185C12.3322 10.4281 13.1004 9.65701 15.242 11.3708C15.9636 11.9528 16.3274 12.5144 16.3506 13.1167C16.3856 13.9635 15.7105 14.6065 15.114 15.171L14.823 15.4446C14.4285 15.781 13.9172 15.9482 13.4001 15.9101M4.05964 1.38736C3.45731 1.38736 2.91318 1.96932 2.43306 2.46981L2.14208 2.76079C1.68524 3.21181 1.7318 4.43683 2.2672 5.85681C2.92773 7.60269 4.24295 9.52025 5.96555 11.2457C7.68815 12.9712 9.6028 14.269 11.3545 14.9412C12.7716 15.4766 13.9733 15.5231 14.4476 15.0605L14.7386 14.7695C15.2566 14.2777 15.8443 13.7191 15.8182 13.0993C15.8007 12.6744 15.4923 12.2263 14.8987 11.7404C13.1237 10.3146 12.6261 10.818 11.8026 11.6531L11.6426 11.816C11.2469 12.2089 10.6096 12.107 9.73956 11.5571C8.94295 11.0008 8.20319 10.3673 7.53102 9.66573C5.40105 7.54158 4.71725 6.23509 5.40105 5.56583L5.56109 5.40579C6.39911 4.58232 6.90251 4.08475 5.4738 2.30977C4.99659 1.72781 4.53975 1.40773 4.11492 1.39027H4.05964" fill="white"/>
<path d="M13.3827 15.8839C12.6253 15.8586 11.8785 15.699 11.177 15.4126C9.35837 14.7288 7.39426 13.3757 5.60765 11.6007C3.82103 9.82577 2.49126 7.85002 1.79581 6.03431C1.17311 4.37573 1.1702 3.02558 1.7929 2.40579L2.06643 2.11481C2.63384 1.52413 3.27399 0.854875 4.12074 0.883973C4.7027 0.910161 5.28466 1.27389 5.86662 1.99551C7.58049 4.12548 6.80939 4.88494 5.91318 5.77825L5.75605 5.93538C5.61056 6.08087 5.33413 6.75885 7.90639 9.33111C8.55367 10.0077 9.26615 10.6188 10.0334 11.1555C10.3943 11.3912 11.0374 11.7375 11.3021 11.4814L11.4593 11.3185C12.3322 10.4281 13.1004 9.65701 15.242 11.3708C15.9636 11.9528 16.3274 12.5144 16.3506 13.1167C16.3856 13.9635 15.7105 14.6065 15.114 15.171L14.823 15.4446C14.4285 15.781 13.9172 15.9482 13.4001 15.9101M4.05964 1.38736C3.45731 1.38736 2.91318 1.96932 2.43306 2.46981L2.14208 2.76079C1.68524 3.21181 1.7318 4.43683 2.2672 5.85681C2.92773 7.60269 4.24295 9.52025 5.96555 11.2457C7.68815 12.9712 9.6028 14.269 11.3545 14.9412C12.7716 15.4766 13.9733 15.5231 14.4476 15.0605L14.7386 14.7695C15.2566 14.2777 15.8443 13.7191 15.8182 13.0993C15.8007 12.6744 15.4923 12.2263 14.8987 11.7404C13.1237 10.3146 12.6261 10.818 11.8026 11.6531L11.6426 11.816C11.2469 12.2089 10.6096 12.107 9.73956 11.5571C8.94295 11.0008 8.20319 10.3673 7.53102 9.66573C5.40105 7.54158 4.71725 6.23509 5.40105 5.56583L5.56109 5.40579C6.39911 4.58232 6.90251 4.08475 5.4738 2.30977C4.99659 1.72781 4.53975 1.40773 4.11492 1.39027H4.05964" stroke="white" stroke-width="0.29098"/>
<path d="M11.6076 1.2041C12.6456 1.47528 13.596 2.00953 14.3672 2.75523C15.1384 3.50094 15.7043 4.43291 16.0102 5.46113" fill="white"/>
<path d="M11.6076 1.2041C12.6456 1.47528 13.596 2.00953 14.3672 2.75523C15.1384 3.50094 15.7043 4.43291 16.0102 5.46113" stroke="white" stroke-width="0.581959" stroke-miterlimit="10" stroke-linecap="round"/>
<path d="M10.7377 3.55811C11.4979 3.70243 12.1945 4.0792 12.7314 4.63638C13.2682 5.19357 13.6189 5.90369 13.7349 6.66868" fill="white"/>
<path d="M10.7377 3.55811C11.4979 3.70243 12.1945 4.0792 12.7314 4.63638C13.2682 5.19357 13.6189 5.90369 13.7349 6.66868" stroke="white" stroke-width="0.581959" stroke-miterlimit="10" stroke-linecap="round"/>
<path d="M10.0568 5.98193C10.3863 5.98193 10.7024 6.11283 10.9354 6.34585C11.1684 6.57886 11.2993 6.89489 11.2993 7.22441" fill="white"/>
<path d="M10.0568 5.98193C10.3863 5.98193 10.7024 6.11283 10.9354 6.34585C11.1684 6.57886 11.2993 6.89489 11.2993 7.22441" stroke="white" stroke-width="0.581959" stroke-miterlimit="10" stroke-linecap="round"/>
</g>
</g>
<defs>
<clipPath id="clip0_9606_489">
<rect width="16" height="16" fill="white" transform="translate(0.825867 0.384033)"/>
</clipPath>
<clipPath id="clip1_9606_489">
<rect width="16" height="16" fill="white" transform="translate(0.825867 0.384033)"/>
</clipPath>
</defs>
</svg>
